<?xml version="1.0" encoding="UTF-8"?>
<svg id="Layer_1" data-name="Layer 1" xmlns="http://www.w3.org/2000/svg" version="1.1" viewBox="0 0 600 600">
  <defs>
    <style>
      .cls-1 {
        fill: #63797f;
      }

      .cls-1, .cls-2, .cls-3, .cls-4, .cls-5, .cls-6, .cls-7, .cls-8, .cls-9, .cls-10 {
        stroke-width: 0px;
      }

      .cls-11 {
        fill: none;
        stroke: #485f66;
        stroke-miterlimit: 10;
        stroke-width: 1.76px;
      }

      .cls-2 {
        fill: #eaeaea;
      }

      .cls-3 {
        fill: #000;
      }

      .cls-4 {
        fill: #485f66;
      }

      .cls-5 {
        fill: #161616;
      }

      .cls-6 {
        fill: #2b2b2b;
      }

      .cls-7 {
        fill: #141414;
      }

      .cls-8 {
        fill: #395156;
      }

      .cls-9 {
        fill: #6d8189;
      }

      .cls-10 {
        fill: #fff;
      }
    </style>
  </defs>
  <path class="cls-11" d="M739,415.34s-196.45,30.48-225.71-52.43c-28.23-79.99-29.01-142.6-47.1-158.41"/>
  <path class="cls-11" d="M-139.61,415.34s196.78,30.48,226.05-52.43c28.23-79.99,29.01-142.6,47.1-158.41"/>
  <g>
    <ellipse class="cls-2" cx="298" cy="532" rx="95" ry="21"/>
    <polygon class="cls-8" points="348.45 444.34 340.33 498.67 322.35 498.67 314.21 444.34 348.45 444.34"/>
    <polygon class="cls-4" points="340.36 444.34 332.23 498.67 322.35 498.67 314.21 444.34 340.36 444.34"/>
    <polygon class="cls-8" points="337.98 531 368.55 523.31 341.47 497.46 322.43 497.46 322.43 506.37 337.98 531"/>
    <polygon class="cls-8" points="345.61 421.07 322.94 424.72 321.55 424.94 311.47 426.56 311.16 425.34 293.9 357.81 307.14 356.05 308.54 355.87 326.74 353.46 334.56 352.42 345.61 421.07"/>
    <polygon class="cls-4" points="337.63 421.07 314.96 424.72 313.56 424.94 311.16 425.34 293.9 357.81 307.14 356.05 308.54 355.87 326.74 353.46 337.63 421.07"/>
    <rect class="cls-8" x="310.17" y="421.3" width="37.28" height="8.97" transform="translate(721.13 793.89) rotate(170.85)"/>
    <polygon class="cls-8" points="349.66 435.84 344.06 436.44 312.61 439.85 311.64 430.93 343.09 427.52 348.69 426.91 349.66 435.84"/>
    <rect class="cls-4" x="312.03" y="429.2" width="31.64" height="8.98" transform="translate(-44.8 37.83) rotate(-6.18)"/>
    <rect class="cls-8" x="312.27" y="437.46" width="37.28" height="8.97" transform="translate(696.8 855.39) rotate(175.32)"/>
    <polygon class="cls-4" points="368.55 523.31 368.55 529.95 337.98 531 368.55 523.31"/>
    <polygon class="cls-8" points="331.64 506.42 330.23 506.54 324.14 437.32 321.55 424.94 307.14 356.05 308.54 355.87 322.94 424.72 325.53 437.11 331.64 506.42"/>
    <polygon class="cls-8" points="281.08 444.34 272.96 498.67 254.97 498.67 246.84 444.34 281.08 444.34"/>
    <polygon class="cls-4" points="274.51 444.34 266.39 498.67 254.97 498.67 246.84 444.34 274.51 444.34"/>
    <polygon class="cls-8" points="257.32 531 226.75 523.31 254.77 497.22 272.87 497.46 272.87 506.37 257.32 531"/>
    <polygon class="cls-8" points="301.94 357.81 284.36 426.56 277.7 425.49 275.52 425.14 274.14 424.91 250.21 421.07 261.12 353.32 261.26 352.42 288.53 356.04 289.94 356.22 301.94 357.81"/>
    <polygon class="cls-4" points="295.01 357.81 277.7 425.49 275.52 425.14 274.14 424.91 250.21 421.07 261.12 353.32 281.6 356.04 283.01 356.22 295.01 357.81"/>
    <polygon class="cls-8" points="285.6 424.32 284.18 433.18 247.38 427.25 248.8 418.39 274.64 422.56 276.02 422.77 285.6 424.32"/>
    <polygon class="cls-8" points="283.66 430.93 282.7 439.85 276.44 439.18 245.65 435.84 246.6 426.91 277.4 430.25 283.66 430.93"/>
    <polygon class="cls-4" points="277.4 430.25 276.44 439.18 245.65 435.84 246.6 426.91 277.4 430.25"/>
    <rect class="cls-8" x="245.75" y="437.46" width="37.28" height="8.97" transform="translate(36.98 -20.12) rotate(4.68)"/>
    <polygon class="cls-4" points="226.75 523.31 226.75 529.89 257.32 531 226.75 523.31"/>
    <g>
      <polygon class="cls-8" points="270.95 444.34 272.35 444.34 267.57 498.67 266.16 498.67 270.95 444.34"/>
      <polygon class="cls-8" points="289.94 356.22 276.02 422.77 274.64 422.56 288.53 356.04 289.94 356.22"/>
    </g>
    <rect class="cls-9" x="295.65" y="34.56" width="2.2" height="34.14"/>
    <path class="cls-4" d="M307.36,78.44h-19.8v-1.8c0-5.47,4.43-9.9,9.9-9.9h0c5.47,0,9.9,4.43,9.9,9.9v1.8Z"/>
    <rect class="cls-4" x="413.34" y="196.81" width="17.36" height="60.98" transform="translate(475.67 703.63) rotate(-124.73)"/>
    <polygon class="cls-4" points="333.75 242.63 390.14 256.34 395.18 237.94 330.49 210.58 333.75 242.63"/>
    <path class="cls-9" d="M383.12,246.6c0,5.64,4.57,10.21,10.21,10.21s10.21-4.57,10.21-10.21-4.57-10.21-10.21-10.21-10.21,4.57-10.21,10.21Z"/>
    <path class="cls-4" d="M387.28,246.6c0,3.34,2.71,6.04,6.04,6.04s6.04-2.71,6.04-6.04-2.71-6.04-6.04-6.04-6.04,2.71-6.04,6.04Z"/>
    <path class="cls-9" d="M451.24,180.94l-6.17,6.53c-7,7.41-6.67,19.09.73,26.09,7.41,7,19.09,6.67,26.09-.73l6.17-6.53-7.04-6.65-5.94,6.29c-3.33,3.52-8.88,3.68-12.4.35-3.52-3.33-3.69-8.89-.36-12.41l5.94-6.29-7.02-6.64Z"/>
    <rect class="cls-4" x="163.15" y="196.81" width="17.36" height="60.98" transform="translate(-112.87 239.01) rotate(-55.27)"/>
    <polygon class="cls-4" points="260.11 242.63 203.71 256.34 198.68 237.94 263.36 211.36 260.11 242.63"/>
    <path class="cls-1" d="M331.99,87.45v84.1c0,9.18-7.45,16.63-16.63,16.63h-35.38c-9.18,0-16.63-7.45-16.63-16.63v-80.1c0-8.46,6.35-15.57,14.75-16.51l29.58-3.34,5.81-.66c9.86-1.11,18.49,6.6,18.49,16.51Z"/>
    <path class="cls-9" d="M319.32,87.45v84.1c0,9.18-7.45,16.63-16.63,16.63h-22.71c-9.18,0-16.63-7.45-16.63-16.63v-80.1c0-8.46,6.35-15.57,14.75-16.51l29.58-3.34c6.69,2.1,11.63,8.33,11.63,15.85Z"/>
    <path class="cls-4" d="M283.66,188.05h26.28c.91,0,1.64.74,1.64,1.64v5.4c0,.91-.74,1.64-1.64,1.64h-26.28c-.91,0-1.64-.74-1.64-1.64v-5.4c0-.91.74-1.64,1.64-1.64Z"/>
    <rect class="cls-8" x="284.01" y="196.15" width="25.58" height="8.68" rx="1.53" ry="1.53"/>
    <rect class="cls-4" x="282.54" y="204.07" width="28.51" height="8.68" rx="1.61" ry="1.61"/>
    <path class="cls-1" d="M345.4,231.58l-3.36,71.23-.07,1.41-1.97,41.65-.55,11.78-.87,18.37h-81.08l-.87-18.37-.55-11.78-2.31-48.81-.07-1.41-3.03-64.06c-.56-11.73,7.81-21.58,18.35-21.58h58.05c10.53,0,18.91,9.86,18.35,21.58Z"/>
    <path class="cls-9" d="M327.8,231.58l-3.36,71.23-.07,1.41-1.97,41.65-.55,11.78-.87,18.37h-63.48l-.87-18.37-.55-11.78-2.31-48.81-.07-1.41-3.03-64.06c-.56-11.73,7.81-21.58,18.35-21.58h40.45c10.53,0,18.91,9.86,18.35,21.58Z"/>
    <path class="cls-9" d="M210.74,246.6c0,5.64-4.57,10.21-10.21,10.21s-10.21-4.57-10.21-10.21,4.57-10.21,10.21-10.21,10.21,4.57,10.21,10.21Z"/>
    <circle class="cls-4" cx="200.53" cy="246.6" r="5.19"/>
    <path class="cls-9" d="M142.61,180.94l6.17,6.53c7,7.41,6.67,19.09-.73,26.09-7.41,7-19.09,6.67-26.09-.73l-6.17-6.53,7.04-6.65,5.94,6.29c3.33,3.52,8.88,3.68,12.4.35s3.69-8.89.36-12.41l-5.94-6.29,7.02-6.64Z"/>
    <path class="cls-3" d="M299.93,33.21c0,1.8-1.46,3.26-3.26,3.26s-3.26-1.46-3.26-3.26,1.46-3.26,3.26-3.26,3.26,1.46,3.26,3.26Z"/>
    <path class="cls-4" d="M319.85,158.25c-15.25-9.5-30.51,9.5-45.76,0v-4.75c15.25,9.5,30.5-9.5,45.76,0v4.75Z"/>
    <g>
      <circle class="cls-1" cx="281.54" cy="122.7" r="16.19" transform="translate(-4.3 235.02) rotate(-45)"/>
      <circle class="cls-1" cx="312.87" cy="122.7" r="16.19" transform="translate(121.31 398.83) rotate(-76.66)"/>
      <rect class="cls-1" x="281.4" y="106.51" width="32.16" height="32.36"/>
    </g>
    <rect class="cls-6" x="278.14" y="114.26" width="7.39" height="17.07"/>
    <rect class="cls-10" x="278.93" y="115.58" width="5.81" height="14.43"/>
    <rect class="cls-5" x="310.35" y="114.26" width="7.39" height="17.07"/>
    <g>
      <polygon class="cls-4" points="271.03 111.6 268.81 108.62 287.01 93.86 290.7 100.26 271.03 111.6"/>
      <polygon class="cls-4" points="324.86 111.6 327.07 108.62 308.87 93.86 305.18 100.26 324.86 111.6"/>
    </g>
    <rect class="cls-1" x="266.64" y="237.1" width="61.71" height="38.72"/>
    <rect class="cls-4" x="272.63" y="240.85" width="49.74" height="31.21"/>
    <rect class="cls-7" x="277.15" y="247.13" width="40.71" height="1.97"/>
    <rect class="cls-7" x="283.52" y="252.54" width="27.97" height="1.97"/>
    <rect class="cls-7" x="280.44" y="257.38" width="34.12" height="1.97"/>
    <polygon class="cls-4" points="342.03 302.8 341.96 304.21 308.17 304.21 308.17 287.08 278.25 287.08 278.25 297.05 253.76 297.05 253.69 295.64 276.85 295.64 276.85 285.67 309.58 285.67 309.58 302.8 342.03 302.8"/>
    <circle class="cls-4" cx="277.55" cy="295.99" r="2.58"/>
    <path class="cls-4" d="M279.31,286.14c0,.97-.79,1.76-1.76,1.76s-1.76-.79-1.76-1.76.79-1.76,1.76-1.76,1.76.79,1.76,1.76Z"/>
    <path class="cls-4" d="M310.64,286.14c0,.97-.79,1.76-1.76,1.76s-1.76-.79-1.76-1.76.79-1.76,1.76-1.76,1.76.79,1.76,1.76Z"/>
    <path class="cls-4" d="M310.64,303.03c0,.97-.79,1.76-1.76,1.76s-1.76-.79-1.76-1.76.79-1.76,1.76-1.76,1.76.79,1.76,1.76Z"/>
    <rect class="cls-10" x="311.08" y="115.58" width="5.81" height="14.43"/>
    <rect class="cls-8" x="254.91" y="357.47" width="85.88" height="25.87"/>
    <rect class="cls-4" x="254.91" y="357.47" width="56.71" height="25.87"/>
    <polygon class="cls-1" points="339.99 345.86 339.44 357.64 256.61 357.64 256.07 345.86 339.99 345.86"/>
  </g>
  <path class="cls-11" d="M133.54,204.5c.66-.58,1.34-1.09,2.05-1.54,20.12-12.8,19.66,36.12,19.66,36.12"/>
  <g>
    <g>
      <rect class="cls-4" x="151.06" y="246.45" width="2.06" height="7.6"/>
      <rect class="cls-4" x="158.09" y="246.45" width="2.06" height="7.6"/>
    </g>
    <path class="cls-4" d="M163.16,243.42v5.49h-15.09v-5.49c0-4.17,3.37-7.55,7.54-7.55,2.08,0,3.97.84,5.34,2.21.18.18.37.38.53.59,1.06,1.3,1.68,2.96,1.68,4.76Z"/>
    <path class="cls-9" d="M163.16,243.42v5.49h-12.93v-3.66c0-4.17,3.38-7.55,7.55-7.55,1.34,0,2.6.35,3.69.97,1.06,1.3,1.68,2.96,1.68,4.76Z"/>
  </g>
  <path class="cls-11" d="M466.19,204.5c-.66-.58-1.34-1.09-2.05-1.54-20.12-12.8-19.66,36.12-19.66,36.12"/>
  <g>
    <path class="cls-4" d="M436.57,243.42v5.49h15.09v-5.49c0-4.17-3.37-7.55-7.53-7.55-2.09,0-3.97.84-5.34,2.21-.18.18-.37.38-.53.59-1.06,1.3-1.68,2.96-1.68,4.76Z"/>
    <path class="cls-9" d="M436.57,243.42v5.49h12.93v-3.66c0-4.17-3.38-7.55-7.55-7.55-1.33,0-2.6.35-3.69.97-1.06,1.3-1.68,2.96-1.68,4.76Z"/>
  </g>
</svg>